<svg width="108" height="20" viewBox="0 0 108 20" fill="none" xmlns="http://www.w3.org/2000/svg">
<g clip-path="url(#clip0_6002_210)">
<path d="M0 19.12V16.6L8.74 8.24H0.19V5.27H13.97V7.79L5.23 16.15H14.5L14.1 19.12H0Z" fill="#0B3449"/>
<path d="M19.12 13.14C19.14 13.83 19.33 14.44 19.69 14.97C20.05 15.5 20.56 15.92 21.2 16.22C21.85 16.52 22.59 16.67 23.44 16.67C25.51 16.67 26.79 16.04 27.29 14.78H30.98C30.61 16.39 29.79 17.59 28.52 18.36C27.25 19.14 25.52 19.53 23.3 19.53C20.79 19.53 18.83 18.9 17.45 17.64C16.06 16.38 15.37 14.62 15.37 12.36C15.37 10.91 15.69 9.61 16.34 8.47C16.99 7.33 17.92 6.43 19.13 5.79C20.34 5.14 21.76 4.82 23.39 4.82C25.87 4.82 27.78 5.44 29.14 6.69C30.49 7.94 31.17 9.69 31.17 11.93V13.12H19.12V13.14ZM27.49 10.73C27.45 9.76 27.07 9 26.35 8.46C25.62 7.92 24.61 7.65 23.32 7.65C22.22 7.65 21.29 7.94 20.52 8.53C19.75 9.12 19.32 9.85 19.23 10.73H27.49Z" fill="#0B3449"/>
<path d="M44.7001 19.12V10.89C44.7001 9.86 44.4601 9.12 43.9701 8.66C43.4801 8.2 42.7101 7.97 41.6501 7.97C41.0801 7.97 40.5201 8.08 39.9601 8.29C39.4001 8.5 38.9201 8.8 38.5101 9.19C37.7701 9.9 37.3901 10.69 37.3901 11.58V19.12H33.4301V5.26H37.3101V7.49C38.8001 5.72 40.7101 4.84 43.0401 4.84C44.8501 4.84 46.2301 5.3 47.2001 6.21C48.1601 7.12 48.6501 8.43 48.6501 10.13V19.13H44.6901L44.7001 19.12Z" fill="#0B3449"/>
<path d="M61.54 18.8C60.3 19.19 58.9999 19.38 57.6399 19.38C55.8899 19.38 54.61 18.99 53.82 18.2C53.02 17.41 52.63 16.16 52.63 14.44V8.2H49.95V5.25H52.63V1.57H56.59V5.26H61.13V8.21H56.59V14.32C56.59 15.01 56.76 15.52 57.09 15.85C57.43 16.18 57.96 16.34 58.68 16.34C59.4 16.34 60.22 16.22 61.02 15.97L61.5499 18.81L61.54 18.8Z" fill="#0B3449"/>
<path d="M74.28 19.12V10.89C74.28 9.86 74.04 9.12 73.55 8.66C73.06 8.2 72.29 7.97 71.23 7.97C70.66 7.97 70.1 8.08 69.54 8.29C68.98 8.5 68.5 8.8 68.09 9.19C67.35 9.9 66.97 10.69 66.97 11.58V19.12H63.01V0.16H66.97V7.41C68.44 5.69 70.32 4.83 72.63 4.83C74.44 4.83 75.82 5.29 76.79 6.2C77.75 7.11 78.24 8.42 78.24 10.12V19.12H74.28Z" fill="#0B3449"/>
<path d="M80.97 3.4V0H85.03V3.4H80.97ZM81.02 19.12V5.26H84.98V19.12H81.02Z" fill="#0B3449"/>
<path d="M98.45 19.12V17.23C97.64 18.01 96.76 18.58 95.83 18.94C94.9 19.3 93.83 19.48 92.63 19.48C90.81 19.48 89.41 19.11 88.44 18.38C87.47 17.65 86.98 16.6 86.98 15.23C86.98 13.71 87.62 12.58 88.89 11.83C90.16 11.09 92.17 10.68 94.92 10.61L98.32 10.53V10C98.32 9.22 98.04 8.62 97.47 8.21C96.9 7.8 96.1 7.59 95.05 7.59C93.05 7.59 91.85 8.16 91.47 9.29L87.89 8.94C88.17 7.54 88.92 6.51 90.13 5.83C91.34 5.16 93.03 4.82 95.19 4.82C99.81 4.82 102.12 6.64 102.12 10.29V19.1H98.46L98.45 19.12ZM98.32 12.88L95 12.96C93.57 13 92.52 13.18 91.85 13.5C91.19 13.83 90.85 14.32 90.85 14.97C90.85 15.54 91.09 15.97 91.58 16.27C92.07 16.57 92.77 16.72 93.69 16.72C94.43 16.72 95.11 16.63 95.73 16.44C96.35 16.25 96.87 15.98 97.3 15.63C97.97 15.1 98.31 14.43 98.31 13.61V12.87L98.32 12.88Z" fill="#0B3449"/>
<path d="M102.32 2.35V0.560001H101.43V0.0600014H103.81V0.560001H102.92V2.35H102.31H102.32ZM106.68 2.35V0.850001L105.94 2.34H105.48L104.74 0.840001V2.34H104.2V0.0600014H104.9L105.73 1.74L106.55 0.0600014H107.24V2.34H106.69L106.68 2.35Z" fill="#0B3449"/>
</g>
<defs>
<clipPath id="clip0_6002_210">
<rect width="107.23" height="19.54" fill="white"/>
</clipPath>
</defs>
</svg>
